<svg width="1310" height="487" xmlns="http://www.w3.org/2000/svg" xmlns:xlink="http://www.w3.org/1999/xlink" xml:space="preserve" overflow="hidden"><defs><clipPath id="clip0"><rect x="934" y="107" width="1310" height="487"/></clipPath><linearGradient x1="411.738" y1="46.9746" x2="1091.92" y2="194.782" gradientUnits="userSpaceOnUse" spreadMethod="pad" id="fill1"><stop offset="0" stop-color="#5F5F5F"/><stop offset="0.986416" stop-color="#5F5F5F"/><stop offset="0.991881" stop-color="#FF6500"/><stop offset="1" stop-color="#FF6500"/></linearGradient></defs><g clip-path="url(#clip0)" transform="translate(-934 -107)"><path d="M465.337 47.1332 465.337 344.986 521.564 344.986 521.564 47.1332 465.337 47.1332ZM574.145 47.1332 574.145 344.986 676.266 344.986C756.199 344.986 798.75 305.171 798.75 224.021L798.75 167.794C798.75 86.6443 756.199 47.1332 676.266 47.1332L574.145 47.1332ZM630.372 99.7133 677.178 99.7133C725.199 99.7133 742.827 123.724 742.827 166.275L742.827 225.845C742.827 268.395 725.199 292.102 677.178 292.102L630.372 292.102 630.372 99.7133ZM839.781 47.1332 839.781 344.986 1037.94 344.986 1037.94 293.013 896.008 293.013 896.008 220.07 1023.66 220.07 1023.66 169.01 896.008 169.01 896.008 98.8016 1035.51 98.8016 1035.51 47.1332 839.781 47.1332ZM1135.82 47.1332 1053.44 344.986 1111.19 344.986 1128.52 279.337 1233.37 279.337 1250.69 344.986 1308.75 344.986 1226.08 47.1332 1135.82 47.1332ZM1142.2 227.364 1178.36 93.9387 1183.52 93.9387 1219.7 227.364 1142.2 227.364Z" fill="url(#fill1)" transform="matrix(1.00096 0 0 1 934 107)"/><path d="M342.364 100.114C339.76 100.117 337.264 101.152 335.422 102.994 333.58 104.835 332.545 107.332 332.543 109.936 332.543 110.55 332.613 111.15 332.725 111.728L294.291 134.056C293.566 132.228 292.309 130.661 290.684 129.556 289.059 128.449 287.139 127.857 285.173 127.854 282.507 127.854 280.089 128.924 278.314 130.659L240.553 108.535C240.22 106.204 239.06 104.069 237.283 102.522 235.505 100.976 233.23 100.121 230.874 100.114 228.548 100.122 226.299 100.956 224.53 102.469 222.761 103.981 221.587 106.073 221.218 108.371L193.653 117.945C192.746 116.718 191.563 115.72 190.202 115.032 188.84 114.343 187.336 113.982 185.811 113.977 180.4 113.977 175.998 118.388 175.998 123.799 175.998 129.21 180.4 133.62 185.811 133.62 188.415 133.618 190.912 132.583 192.755 130.742 194.597 128.901 195.633 126.404 195.636 123.799 195.636 123.256 195.558 122.729 195.476 122.203L221.631 113.121C222.291 115.05 223.535 116.726 225.192 117.914 226.849 119.104 228.836 119.747 230.874 119.754 235.016 119.754 238.543 117.178 239.988 113.542L275.895 134.586C275.545 135.575 275.359 136.613 275.347 137.662 275.16 138.991 275.248 140.345 275.605 141.639 275.963 142.933 276.584 144.139 277.426 145.183 278.27 146.228 279.319 147.089 280.508 147.71 281.698 148.333 283.002 148.704 284.341 148.802 285.68 148.899 287.024 148.72 288.291 148.276 289.559 147.832 290.72 147.133 291.706 146.222 292.691 145.311 293.48 144.206 294.021 142.978 294.561 141.749 294.845 140.423 294.852 139.08L334.652 115.948C335.561 117.128 336.729 118.086 338.065 118.746 339.4 119.405 340.87 119.75 342.36 119.754 344.928 119.7 347.374 118.642 349.172 116.807 350.97 114.972 351.977 112.505 351.978 109.936 351.978 107.367 350.972 104.9 349.175 103.064 347.378 101.228 344.934 100.169 342.364 100.114L342.364 100.114ZM185.819 128.998C184.792 128.996 183.788 128.689 182.934 128.116 182.08 127.545 181.415 126.733 181.023 125.783 180.631 124.833 180.529 123.788 180.731 122.779 180.932 121.772 181.428 120.847 182.156 120.12 182.883 119.394 183.809 118.9 184.817 118.701 185.825 118.501 186.87 118.604 187.819 118.998 188.768 119.391 189.58 120.057 190.15 120.913 190.722 121.767 191.026 122.771 191.026 123.799 191.026 126.662 188.694 128.998 185.819 128.998ZM285.178 142.864C283.8 142.861 282.48 142.312 281.506 141.338 280.532 140.364 279.983 139.044 279.979 137.667 280.019 136.313 280.584 135.028 281.555 134.086 282.526 133.142 283.826 132.614 285.18 132.614 286.533 132.614 287.834 133.142 288.805 134.086 289.775 135.028 290.341 136.313 290.38 137.667 290.38 140.528 288.044 142.864 285.178 142.864L285.178 142.864ZM342.364 115.134C339.493 115.134 337.163 112.807 337.163 109.936 337.201 108.584 337.766 107.301 338.736 106.358 339.706 105.416 341.005 104.889 342.358 104.889 343.71 104.889 345.01 105.416 345.98 106.358 346.95 107.301 347.515 108.584 347.554 109.936 347.554 112.807 345.227 115.134 342.364 115.134ZM228.495 217.534C228.104 217.381 227.713 217.246 227.321 217.089L228.495 217.534ZM332.581 195.963C337.615 190.926 340.699 186.659 337.74 190.143L337.74 126.578C325.457 129.289 315.173 144.591 297.309 154.409 296.896 154.648 296.548 154.774 296.148 154.97L296.148 218.772C309.856 214.012 322.312 206.215 332.581 195.963L332.581 195.963Z" fill="#FF6500" transform="matrix(1.00096 0 0 1 934 107)"/><path d="M281.715 222.687 281.715 157.788C270.44 155.335 263.055 140.693 243.015 128.997 242.081 128.456 241.116 127.968 240.126 127.536L240.126 221.217C253.737 224.684 267.936 225.219 281.715 222.687ZM285.674 221.804C284.499 222.082 283.338 222.4 282.159 222.622 283.338 222.4 284.499 222.078 285.674 221.804ZM195.606 195.962C204.252 204.592 214.458 211.503 225.681 216.328L225.681 124.93C210.94 125.312 195.071 133.272 184.088 140.084L184.088 182.051C187.488 187.035 191.344 191.692 195.606 195.962L195.606 195.962Z" fill="#FF6500" transform="matrix(1.00096 0 0 1 934 107)"/><path d="M354.127 37.3637C304.312-12.4546 223.559-12.4546 173.748 37.3637 128.194 82.9107 124.426 154.248 162.17 204.227L131.181 235.228 120.563 224.61 0 345.179 46.2994 391.473 166.876 270.901 156.258 260.305 187.255 229.304C237.225 267.033 308.58 263.293 354.131 217.733 403.937 167.932 403.937 87.1648 354.127 37.3637L354.127 37.3637ZM332.582 195.963C322.312 206.214 309.857 214.012 296.148 218.772L296.148 218.782C291.446 220.466 286.621 221.783 281.715 222.723L281.715 222.687C267.907 225.202 253.719 224.7 240.122 221.217L240.122 221.317C235.188 220.083 230.358 218.459 225.681 216.458L225.681 216.324C214.458 211.499 204.253 204.588 195.607 195.958 191.262 191.608 187.429 186.945 184.092 182.051L184.092 182.256C158.185 144.543 161.922 92.5846 195.45 59.0607 233.284 21.2216 294.6 21.2478 332.426 59.0607 368.356 94.9988 370.073 152.098 337.741 190.143 340.699 186.658 337.615 190.925 332.582 195.963Z" fill="#2D2D2D" transform="matrix(1.00096 0 0 1 934 107)"/><path d="M7.85417 485.766 7.85417 445.609 0 445.609 0 485.766 7.85417 485.766ZM48.4945 445.609 40.6806 445.609 40.6806 471.91 24.2069 445.609 16.6348 445.609 16.6348 485.766 24.4889 485.766 24.4889 459.989 38.3445 481.698C40.6001 485.766 42.9764 486.21 44.7084 486.21 46.7625 486.21 48.4945 484.195 48.4945 481.698L48.4945 445.609ZM82.7307 452.618 82.7307 445.609 53.4084 445.609 53.4084 452.618 64.1223 452.618 64.1223 485.766 71.9765 485.766 71.9765 452.618 82.7307 452.618ZM115.275 485.766 115.275 478.758 101.621 478.758C97.9154 478.758 96.6668 477.831 96.6668 474.609L96.6668 469.01 109.113 469.01 109.676 462.042 96.6668 462.042 96.6668 452.618 115.275 452.618 115.275 445.609 88.8126 445.609 88.8126 475.173C88.8126 483.108 92.0751 485.766 101.057 485.766L115.275 485.766ZM153.337 485.766 144.355 469.574C148.263 468.164 151.686 464.096 151.686 458.458 151.686 451.208 146.853 445.609 138.676 445.609L132.03 445.609C125.304 445.609 122.928 448.388 122.928 454.228L122.928 485.766 130.782 485.766 130.782 470.863 136.42 470.863 144.234 485.766 153.337 485.766ZM143.873 458.458C143.873 461.559 141.617 464.338 138.153 464.338L130.782 464.338 130.782 456.162C130.782 454.148 131.789 452.618 134.286 452.618L138.153 452.618C141.617 452.618 143.873 454.792 143.873 458.458ZM190.272 485.766 177.423 448.992C176.376 446.133 175.087 445.609 173.275 445.609 171.382 445.609 170.013 446.294 168.845 448.992L155.996 485.766 164.172 485.766 166.348 478.839 179.841 478.839 182.096 485.766 190.272 485.766ZM178.028 472.233 168.321 472.233 173.275 456.323 178.028 472.233ZM216.09 470.219C215.567 475.576 214.399 479.12 208.72 479.12 201.591 479.12 201.148 473.32 201.148 467.883L201.148 464.379C201.148 458.296 201.39 452.255 208.72 452.255 213.512 452.255 215.124 454.873 215.848 458.981L223.179 458.981C223.179 449.718 216.896 445.287 208.72 445.287 196.515 445.287 193.293 453.745 193.293 464.62L193.293 468.004C193.293 477.63 196.515 486.089 208.72 486.089 217.943 486.089 223.381 480.53 223.381 470.219L216.09 470.219ZM256.127 452.618 256.127 445.609 226.804 445.609 226.804 452.618 237.518 452.618 237.518 485.766 245.373 485.766 245.373 452.618 256.127 452.618ZM270.063 485.766 270.063 445.609 262.208 445.609 262.208 485.766 270.063 485.766ZM307.32 445.609 299.143 445.609 291.088 471.789 283.033 445.609 274.896 445.609 287.382 483.511C288.712 486.894 293.343 486.934 294.713 483.511L307.32 445.609ZM338.615 485.766 338.615 478.758 324.961 478.758C321.256 478.758 320.007 477.831 320.007 474.609L320.007 469.01 332.494 469.01 333.057 462.042 320.007 462.042 320.007 452.618 338.615 452.618 338.615 445.609 312.193 445.609 312.193 475.173C312.193 483.108 315.456 485.766 324.397 485.766L338.615 485.766ZM389.648 465.506C389.486 459.505 390.091 453.947 385.58 449.435 382.961 446.818 379.176 445.609 374.987 445.609L359.359 445.609 359.359 475.213C359.359 483.108 362.822 485.766 374.423 485.766 378.612 485.766 382.961 484.598 385.58 481.94 389.043 478.476 389.486 474.328 389.728 469.856L389.648 465.506ZM381.834 465.506C381.834 471.629 381.592 474.488 380.143 476.301 378.772 477.912 376.96 478.758 374.261 478.758 368.905 478.758 367.213 477.831 367.213 474.81L367.213 452.618 374.261 452.618C376.96 452.618 378.772 453.464 380.143 455.075 381.592 456.887 381.834 459.425 381.834 465.506ZM426.985 485.766 414.137 448.992C413.129 446.133 411.801 445.609 410.028 445.609 408.095 445.609 406.725 446.294 405.557 448.992L392.709 485.766 400.885 485.766 403.06 478.839 416.553 478.839 418.809 485.766 426.985 485.766ZM414.74 472.233 405.034 472.233 410.028 456.323 414.74 472.233ZM458.603 452.618 458.603 445.609 429.281 445.609 429.281 452.618 439.995 452.618 439.995 485.766 447.849 485.766 447.849 452.618 458.603 452.618ZM495.176 485.766 482.286 448.992C481.28 446.133 479.991 445.609 478.179 445.609 476.285 445.609 474.916 446.294 473.748 448.992L460.858 485.766 469.035 485.766 471.25 478.839 484.743 478.839 486.999 485.766 495.176 485.766ZM482.931 472.233 473.224 472.233 478.179 456.323 482.931 472.233ZM540.206 485.766 540.206 478.758 526.552 478.758C522.846 478.758 521.598 477.831 521.598 474.609L521.598 469.01 534.084 469.01 534.648 462.042 521.598 462.042 521.598 452.618 540.206 452.618 540.206 445.609 513.784 445.609 513.784 475.173C513.784 483.108 517.046 485.766 525.988 485.766L540.206 485.766ZM579.557 485.766 566.024 465.184 578.672 445.609 569.085 445.609 561.472 458.579 553.981 445.609 544.315 445.609 556.962 465.184 543.469 485.766 553.176 485.766 561.472 471.789 569.891 485.766 579.557 485.766ZM612.787 459.263C612.787 450.201 607.832 445.609 599.536 445.609L583.988 445.609 583.988 485.766 591.802 485.766 591.802 472.918 599.536 472.918C607.832 472.918 612.787 468.326 612.787 459.263ZM604.932 459.263C604.932 464.217 602.677 465.869 599.133 465.869L591.802 465.869 591.802 452.618 599.133 452.618C602.677 452.618 604.932 454.309 604.932 459.263ZM644.123 485.766 644.123 478.758 632.201 478.758C628.455 478.758 627.206 477.831 627.206 474.609L627.206 445.609 619.392 445.609 619.392 474.609C619.392 482.544 623.219 485.766 632.201 485.766L644.123 485.766ZM679.849 463.815C679.849 451.53 674.935 445.287 663.859 445.287 652.581 445.287 647.909 451.53 647.909 463.774L647.909 466.715C647.909 480.409 652.581 486.089 663.859 486.089 674.976 486.089 679.849 480.409 679.849 466.876L679.849 463.815ZM671.995 466.715C671.995 472.957 671.271 479.12 663.859 479.12 656.247 479.12 655.803 472.837 655.764 466.715L655.764 464.62C655.764 457.894 656.528 452.255 663.859 452.255 671.109 452.255 671.995 457.894 671.995 464.62L671.995 466.715ZM717.106 485.766 708.124 469.574C712.031 468.164 715.455 464.096 715.455 458.458 715.455 451.208 710.622 445.609 702.445 445.609L695.8 445.609C689.073 445.609 686.697 448.388 686.697 454.228L686.697 485.766 694.551 485.766 694.551 470.863 700.189 470.863 708.044 485.766 717.106 485.766ZM707.641 458.458C707.641 461.559 705.386 464.338 701.921 464.338L694.551 464.338 694.551 456.162C694.551 454.148 695.558 452.618 698.055 452.618L701.921 452.618C705.386 452.618 707.641 454.792 707.641 458.458ZM754.041 485.766 741.192 448.992C740.186 446.133 738.856 445.609 737.084 445.609 735.151 445.609 733.782 446.294 732.614 448.992L719.765 485.766 727.941 485.766 730.116 478.839 743.609 478.839 745.865 485.766 754.041 485.766ZM741.797 472.233 732.089 472.233 737.084 456.323 741.797 472.233ZM785.659 452.618 785.659 445.609 756.337 445.609 756.337 452.618 767.051 452.618 767.051 485.766 774.905 485.766 774.905 452.618 785.659 452.618ZM799.596 485.766 799.596 445.609 791.782 445.609 791.782 485.766 799.596 485.766ZM838.383 463.815C838.383 451.53 833.509 445.287 822.432 445.287 811.155 445.287 806.482 451.53 806.482 463.774L806.482 466.715C806.482 480.409 811.155 486.089 822.432 486.089 833.55 486.089 838.383 480.409 838.383 466.876L838.383 463.815ZM830.569 466.715C830.569 472.957 829.844 479.12 822.432 479.12 814.821 479.12 814.378 472.837 814.337 466.715L814.337 464.62C814.337 457.894 815.102 452.255 822.432 452.255 829.643 452.255 830.569 457.894 830.569 464.62L830.569 466.715ZM876.567 445.609 868.753 445.609 868.753 471.91 852.279 445.609 844.706 445.609 844.706 485.766 852.561 485.766 852.561 459.989 866.417 481.698C868.671 485.766 871.048 486.21 872.78 486.21 874.834 486.21 876.567 484.195 876.567 481.698L876.567 445.609ZM928.243 485.766 915.354 448.992C914.347 446.133 913.058 445.609 911.246 445.609 909.352 445.609 907.983 446.294 906.815 448.992L893.927 485.766 902.102 485.766 904.317 478.839 917.81 478.839 920.066 485.766 928.243 485.766ZM915.998 472.233 906.291 472.233 911.246 456.323 915.998 472.233ZM965.057 445.609 957.202 445.609 957.202 471.91 940.729 445.609 933.197 445.609 933.197 485.766 941.011 485.766 941.011 459.989 954.907 481.698C957.163 485.766 959.539 486.21 961.27 486.21 963.285 486.21 965.057 484.195 965.057 481.698L965.057 445.609ZM1003.44 465.506C1003.28 459.505 1003.88 453.947 999.373 449.435 996.755 446.818 992.969 445.609 988.78 445.609L973.152 445.609 973.152 475.213C973.152 483.108 976.616 485.766 988.217 485.766 992.405 485.766 996.755 484.598 999.373 481.94 1002.84 478.476 1003.28 474.328 1003.52 469.856L1003.44 465.506ZM995.627 465.506C995.627 471.629 995.386 474.488 993.936 476.301 992.566 477.912 990.754 478.758 988.055 478.758 982.698 478.758 981.007 477.831 981.007 474.81L981.007 452.618 988.055 452.618C990.754 452.618 992.566 453.464 993.936 455.075 995.386 456.887 995.627 459.425 995.627 465.506ZM1053.87 485.766 1041.02 448.992C1039.97 446.133 1038.68 445.609 1036.87 445.609 1034.98 445.609 1033.61 446.294 1032.44 448.992L1019.59 485.766 1027.77 485.766 1029.94 478.839 1043.44 478.839 1045.69 485.766 1053.87 485.766ZM1041.63 472.233 1031.92 472.233 1036.87 456.323 1041.63 472.233ZM1090.68 445.609 1082.83 445.609 1082.83 471.91 1066.39 445.609 1058.82 445.609 1058.82 485.766 1066.68 485.766 1066.68 459.989 1080.54 481.698C1082.79 485.766 1085.17 486.21 1086.9 486.21 1088.95 486.21 1090.68 484.195 1090.68 481.698L1090.68 445.609ZM1129.27 485.766 1116.38 448.992C1115.38 446.133 1114.08 445.609 1112.27 445.609 1110.38 445.609 1109.01 446.294 1107.84 448.992L1094.96 485.766 1103.13 485.766 1105.34 478.839 1118.84 478.839 1121.09 485.766 1129.27 485.766ZM1117.02 472.233 1107.31 472.233 1112.27 456.323 1117.02 472.233ZM1159.52 485.766 1159.52 478.758 1147.6 478.758C1143.85 478.758 1142.6 477.831 1142.6 474.609L1142.6 445.609 1134.78 445.609 1134.78 474.609C1134.78 482.544 1138.61 485.766 1147.6 485.766L1159.52 485.766ZM1193.19 445.609 1184.69 445.609 1177.28 461.801 1169.79 445.609 1161.29 445.609 1173.34 469.293 1173.34 485.766 1181.15 485.766 1181.15 469.293 1193.19 445.609ZM1224.16 452.618 1224.16 445.609 1194.84 445.609 1194.84 452.618 1205.56 452.618 1205.56 485.766 1213.37 485.766 1213.37 452.618 1224.16 452.618ZM1238.1 485.766 1238.1 445.609 1230.24 445.609 1230.24 485.766 1238.1 485.766ZM1267.74 470.219C1267.22 475.576 1266.05 479.12 1260.37 479.12 1253.25 479.12 1252.8 473.32 1252.8 467.883L1252.8 464.379C1252.8 458.296 1253.04 452.255 1260.37 452.255 1265.17 452.255 1266.77 454.873 1267.5 458.981L1274.83 458.981C1274.83 449.718 1268.55 445.287 1260.37 445.287 1248.17 445.287 1244.95 453.745 1244.95 464.62L1244.95 468.004C1244.95 477.63 1248.17 486.089 1260.37 486.089 1269.6 486.089 1275.03 480.53 1275.03 470.219L1267.74 470.219ZM1308.75 473.924C1308.75 466.635 1304.56 463.211 1297.95 462.325L1291.55 461.639C1289.01 461.278 1286.64 459.827 1286.64 457.169 1286.64 454.43 1289.22 452.093 1293.97 452.093 1296.62 452.093 1299.77 453.06 1300.57 457.007L1307.54 456.686C1307.54 449.838 1301.7 445.287 1294.21 445.287 1284.94 445.287 1279.06 450.281 1279.06 457.45 1279.06 464.379 1283.53 467.762 1289.74 468.688L1296.26 469.373C1299.21 469.816 1301.05 471.347 1301.05 474.166 1301.05 477.348 1298.64 479.12 1294 479.12 1290.3 479.12 1285.67 477.066 1285.67 472.676L1278.58 473.039C1278.58 482.786 1287.81 486.089 1293.93 486.089 1302.3 486.089 1308.75 481.698 1308.75 473.924Z" fill="#5F5F5F" transform="matrix(1.00096 0 0 1 934 107)"/></g></svg>